<svg xmlns="http://www.w3.org/2000/svg" viewBox="0 0 400 400">
  <defs>
    <clipPath id="circleClipSketch"><circle cx="200" cy="200" r="200"/></clipPath>
    <filter id="paper">
      <feTurbulence type="fractalNoise" baseFrequency="0.9" numOctaves="2" result="noise"/>
      <feColorMatrix in="noise" type="matrix" values="0 0 0 0 0  0 0 0 0 0  0 0 0 0 0  0 0 0 0.04 0"/>
    </filter>
  </defs>

  <g clip-path="url(#circleClipSketch)">
    <rect width="400" height="400" fill="#F7F5F2"/>
    <rect width="400" height="400" filter="url(#paper)"/>

    <g fill="none" stroke="#3B3B3B" stroke-linecap="round" stroke-linejoin="round">
      <!-- shoulders -->
      <path d="M58 400 C58 298 130 258 200 258 C270 258 342 298 342 400" stroke-width="2.5"/>
      <path d="M177 261 L200 298 L223 261" stroke-width="2"/>

      <!-- hatching on shirt for shading -->
      <path d="M90 340 l60 -40 M110 370 l70 -50 M230 330 l60 -40 M210 375 l90 -55" stroke-width="1" opacity="0.45"/>

      <!-- neck -->
      <path d="M182 210 v52 M218 210 v52" stroke-width="1.6"/>

      <!-- head outline -->
      <ellipse cx="200" cy="165" rx="78" ry="86" stroke-width="2.5"/>

      <!-- ears -->
      <path d="M112 160 q-6 10 2 20" stroke-width="1.6"/>
      <path d="M288 160 q6 10 -2 20" stroke-width="1.6"/>

      <!-- hair, sketchy strokes -->
      <path d="M120 150 C110 70 140 32 200 32 C264 32 292 74 280 150" stroke-width="2.4"/>
      <path d="M132 60 q10 40 6 90 M160 42 q6 46 2 96 M195 34 q0 50 -2 100 M232 44 q6 44 2 92 M262 60 q10 40 6 88" stroke-width="1" opacity="0.55"/>

      <!-- glasses -->
      <rect x="140" y="160" width="46" height="34" rx="10" stroke-width="2"/>
      <rect x="214" y="160" width="46" height="34" rx="10" stroke-width="2"/>
      <path d="M186 174 h28 M140 174 h-14 M260 174 h14" stroke-width="2"/>

      <!-- eyebrows -->
      <path d="M156 158 q16 -10 32 -2" stroke-width="2"/>
      <path d="M212 156 q16 -8 32 2" stroke-width="2"/>

      <!-- eyes -->
      <path d="M166 176 q6 -6 12 0 q-6 6 -12 0" stroke-width="1.6"/>
      <path d="M222 176 q6 -6 12 0 q-6 6 -12 0" stroke-width="1.6"/>

      <!-- nose -->
      <path d="M198 182 q-4 20 -12 26 q10 8 26 0" stroke-width="1.8"/>

      <!-- mouth -->
      <path d="M170 224 q30 22 60 0" stroke-width="2"/>

      <!-- cheek shading hatch -->
      <path d="M140 202 l16 -6 M144 210 l16 -6 M244 202 l16 -6 M248 210 l16 -6" stroke-width="1" opacity="0.4"/>

      <!-- cross-hatch shadow under jaw -->
      <path d="M150 230 q50 30 100 0 M158 240 q42 24 84 0" stroke-width="1" opacity="0.35"/>
    </g>
  </g>

  <circle cx="200" cy="200" r="198" fill="none" stroke="#FFFFFF" stroke-width="4"/>
</svg>
